<?xml version="1.0" encoding="UTF-8" standalone="no"?>
<!-- Created with Inkscape (http://www.inkscape.org/) -->

<svg
   version="1.1"
   id="svg1"
   width="1440"
   height="1440"
   fill="currentColor"
   viewBox="0 0 1440 1440"
   sodipodi:docname="QUbiTO Logo_Bianco_Logo Bianco.svg"
   inkscape:version="1.4 (1:1.4+202410161351+e7c3feb100)"
   xmlns:inkscape="http://www.inkscape.org/namespaces/inkscape"
   xmlns:sodipodi="http://sodipodi.sourceforge.net/DTD/sodipodi-0.dtd"
   xmlns="http://www.w3.org/2000/svg"
   xmlns:svg="http://www.w3.org/2000/svg">
  <defs
     id="defs1" />
  <sodipodi:namedview
     id="namedview1"
     pagecolor="currentColor"
     borderopacity="0.25"
     inkscape:showpageshadow="2"
     inkscape:pageopacity="0.0"
     inkscape:pagecheckerboard="0"
     inkscape:deskcolor="#d1d1d1"
     inkscape:zoom="0.55069444"
     inkscape:cx="720.90794"
     inkscape:cy="720"
     inkscape:window-width="1920"
     inkscape:window-height="1011"
     inkscape:window-x="0"
     inkscape:window-y="0"
     inkscape:window-maximized="1"
     inkscape:current-layer="g1">
    <inkscape:page
       x="0"
       y="0"
       inkscape:label="1"
       id="page1"
       width="1440"
       height="1440"
       margin="0"
       bleed="0" />
  </sodipodi:namedview>
  <g
     id="g1"
     inkscape:groupmode="layer"
     inkscape:label="1">
    <g
       id="group-R5">
      <path
         id="path2"
         d="m 8709.24,2445.69 h -251.18 l 998.62,2876.19 -1005.3,2869.24 h 257.86 L 9704.52,5321.88 8709.24,2445.69"
         style="fill-opacity:1;fill-rule:nonzero;stroke:none"
         transform="matrix(0.13333333,0,0,-0.13333333,0,1440)" />
      <path
         id="path3"
         d="m 2090.76,8191.12 h 251.18 L 1343.31,5314.93 2348.62,2445.69 h -257.86 l -995.28,2869.24 995.28,2876.19"
         style="fill-opacity:1;fill-rule:nonzero;stroke:none"
         transform="matrix(0.13333333,0,0,-0.13333333,0,1440)" />
      <path
         id="path4"
         d="m 7539.28,7914.56 c 0,0 -449.86,-2845.09 -1009.15,-2845.09 h -7.47 c -559.3,0 -1009.16,2845.09 -1009.16,2845.09"
         style="fill:none;stroke:currentColor;stroke-width:60;stroke-linecap:butt;stroke-linejoin:miter;stroke-miterlimit:10;stroke-dasharray:none;stroke-opacity:1"
         transform="matrix(0.13333333,0,0,-0.13333333,0,1440)" />
      <path
         id="path5"
         d="M 4723.22,7367.71 H 8174.63"
         style="fill:none;stroke:currentColor;stroke-width:20;stroke-linecap:butt;stroke-linejoin:miter;stroke-miterlimit:10;stroke-dasharray:none;stroke-opacity:1"
         transform="matrix(0.13333333,0,0,-0.13333333,0,1440)" />
      <path
         id="path6"
         d="M 5026.17,6865.31 H 8174.63"
         style="fill:none;stroke:currentColor;stroke-width:20;stroke-linecap:butt;stroke-linejoin:miter;stroke-miterlimit:10;stroke-dasharray:none;stroke-opacity:1"
         transform="matrix(0.13333333,0,0,-0.13333333,0,1440)" />
      <path
         id="path7"
         d="M 5125.71,6362.91 H 8174.63"
         style="fill:none;stroke:currentColor;stroke-width:20;stroke-linecap:butt;stroke-linejoin:miter;stroke-miterlimit:10;stroke-dasharray:none;stroke-opacity:1"
         transform="matrix(0.13333333,0,0,-0.13333333,0,1440)" />
      <path
         id="path8"
         d="M 4991.24,5860.51 H 8174.63"
         style="fill:none;stroke:currentColor;stroke-width:20;stroke-linecap:butt;stroke-linejoin:miter;stroke-miterlimit:10;stroke-dasharray:none;stroke-opacity:1"
         transform="matrix(0.13333333,0,0,-0.13333333,0,1440)" />
      <path
         id="path9"
         d="M 4479.56,5358.11 H 8174.63"
         style="fill:none;stroke:currentColor;stroke-width:20;stroke-linecap:butt;stroke-linejoin:miter;stroke-miterlimit:10;stroke-dasharray:none;stroke-opacity:1"
         transform="matrix(0.13333333,0,0,-0.13333333,0,1440)" />
      <path
         id="path10"
         d="m 4820.48,7364.35 h 337.04 c 0,0 453.81,0 594.79,103.36 80.78,59.23 166.62,28.77 225.21,-8.04 36.37,-22.85 67.7,-54.35 94,-90.55 34.29,-47.21 103.75,-129.58 169.84,-127.83 92.52,2.47 202.67,233.81 290.79,231.35 88.11,-2.47 189.45,-231.4 292.98,-231.37 103.54,0.02 218.64,266.1 354.12,259.81 135.48,-6.3 240.67,-130.36 586.53,-129.85 345.86,0.5 422.11,0.11 422.11,0.11"
         style="fill:none;stroke:currentColor;stroke-width:30;stroke-linecap:butt;stroke-linejoin:miter;stroke-miterlimit:10;stroke-dasharray:none;stroke-opacity:1"
         transform="matrix(0.13333333,0,0,-0.13333333,0,1440)" />
      <path
         id="path11"
         d="m 5042.97,6858.6 h 467.31 c 61.11,0 121.39,-14.6 177.31,-42.11 126.81,-62.36 322.46,-168.31 535.05,64.26 0,0 113.45,164.89 252.23,38.14 138.78,-126.74 194.96,-267.02 388.82,-56.6 193.85,210.42 350.26,89.83 350.26,89.83 0,0 157.78,-88.23 513.01,-86.57 355.22,1.66 459.58,0 459.58,0"
         style="fill:none;stroke:currentColor;stroke-width:30;stroke-linecap:butt;stroke-linejoin:miter;stroke-miterlimit:10;stroke-dasharray:none;stroke-opacity:1"
         transform="matrix(0.13333333,0,0,-0.13333333,0,1440)" />
      <path
         id="path12"
         d="m 5082.62,6354.82 h 513.25 c 73.34,0 145.68,-14.61 212.8,-42.11 152.19,-62.36 330.53,-189.35 552.75,64.25 0,0 158.61,218.54 343.66,0 185.04,-218.53 383.3,-124.4 383.3,-124.4 0,0 209.2,102.73 437.28,103.98 l 662.23,0.01"
         style="fill:none;stroke:currentColor;stroke-width:30;stroke-linecap:butt;stroke-linejoin:miter;stroke-miterlimit:10;stroke-dasharray:none;stroke-opacity:1"
         transform="matrix(0.13333333,0,0,-0.13333333,0,1440)" />
      <path
         id="path13"
         d="m 4928.14,5856.18 h 764.25 c 82.49,0 164.26,16 242.19,46.19 139.79,54.14 385.64,122.93 527.62,8.72 165.43,-133.07 208.95,-171.39 342.84,-171.88 63.74,-0.24 126.94,11.91 187.59,33.84 91.04,32.91 270.89,83.03 522.02,83.03 h 671.89"
         style="fill:none;stroke:currentColor;stroke-width:30;stroke-linecap:butt;stroke-linejoin:miter;stroke-miterlimit:10;stroke-dasharray:none;stroke-opacity:1"
         transform="matrix(0.13333333,0,0,-0.13333333,0,1440)" />
      <path
         id="path14"
         d="m 4353.71,5355.5 h 1323.7 c 0,0 300.7,-14.76 487.4,99.68 186.7,114.43 360.73,230.11 647.11,48.6 0,0 222.49,-158.74 608,-148.28 385.51,10.46 767.97,7.14 767.97,7.14"
         style="fill:none;stroke:currentColor;stroke-width:30;stroke-linecap:butt;stroke-linejoin:miter;stroke-miterlimit:10;stroke-dasharray:none;stroke-opacity:1"
         transform="matrix(0.13333333,0,0,-0.13333333,0,1440)" />
      <path
         id="path15"
         d="m 4066.13,6492.02 c 0,-62.98 -51.05,-114.04 -114.04,-114.04 -62.97,0 -114.03,51.06 -114.03,114.04 0,62.98 51.06,114.03 114.03,114.03 62.99,0 114.04,-51.05 114.04,-114.03"
         style="fill-opacity:1;fill-rule:nonzero;stroke:none"
         transform="matrix(0.13333333,0,0,-0.13333333,0,1440)" />
      <path
         id="path16"
         d="m 5125.71,6492.02 c 0,-648.17 -525.45,-1173.61 -1173.62,-1173.61 -648.16,0 -1173.61,525.44 -1173.61,1173.61 0,648.17 525.45,1173.61 1173.61,1173.61 648.17,0 1173.62,-525.44 1173.62,-1173.61 z"
         style="fill:none;stroke:currentColor;stroke-width:60;stroke-linecap:butt;stroke-linejoin:miter;stroke-miterlimit:10;stroke-dasharray:none;stroke-opacity:1"
         transform="matrix(0.13333333,0,0,-0.13333333,0,1440)" />
      <path
         id="path17"
         d="M 3952.09,6492.02 5211.22,5232.89"
         style="fill:none;stroke:currentColor;stroke-width:70;stroke-linecap:butt;stroke-linejoin:miter;stroke-miterlimit:10;stroke-dasharray:none;stroke-opacity:1"
         transform="matrix(0.13333333,0,0,-0.13333333,0,1440)" />
      <path
         id="path18"
         d="m 5127.91,5187.3 176.07,-47.16 -47.17,176.06 z"
         style="fill-opacity:1;fill-rule:nonzero;stroke:none"
         transform="matrix(0.13333333,0,0,-0.13333333,0,1440)" />
      <path
         id="path19"
         d="m 5125.71,6492.02 c 0,-184.77 -525.45,-334.55 -1173.62,-334.55 -648.16,0 -1173.61,149.78 -1173.61,334.55 0,184.76 525.45,334.54 1173.61,334.54 648.17,0 1173.62,-149.78 1173.62,-334.54 z"
         style="fill:none;stroke:currentColor;stroke-width:60;stroke-linecap:butt;stroke-linejoin:miter;stroke-miterlimit:10;stroke-dasharray:none;stroke-opacity:1"
         transform="matrix(0.13333333,0,0,-0.13333333,0,1440)" />
      <path
         id="path20"
         d="m 4047.92,3526.56 c -0.41,119.24 -52.76,236 -143.96,319.3 -89.96,84.14 -214.39,134.2 -343.2,136.49 -128.17,2.91 -260.3,-36.98 -361.68,-120.28 -102,-81.86 -165.36,-207.33 -164.74,-335.51 -0.62,-128.18 62.74,-253.45 164.95,-335.09 101.17,-83.31 233.3,-122.99 361.47,-120.08 64.41,1.04 127.77,13.92 185.93,37.6 58.59,22.86 112.39,56.3 157.06,98.48 91.41,83.3 143.76,200.05 144.17,319.09 z m 223.95,0 c 1.25,-169.73 -71.67,-340.49 -202.13,-464.52 -65.44,-61.9 -144.18,-112.59 -231.84,-146.25 -87.47,-33.24 -182.82,-49.86 -277.14,-49.02 -94.31,1.87 -188.42,21.81 -272.55,58.79 -84.35,36.98 -158.31,89.95 -217.93,152.48 -12.88,13.5 -24.72,27.63 -36.15,41.76 v -231.01 h -225.19 v 1785.76 h 225.19 v -741.64 c 11.43,14.33 23.48,28.46 36.36,41.96 59.62,62.53 133.58,115.51 217.92,152.48 84.14,36.98 178.25,56.93 272.35,58.8 94.32,0.83 189.47,-15.79 277.14,-49.03 87.45,-33.66 166.19,-84.35 231.63,-146.05 130.46,-124.02 203.59,-294.58 202.34,-464.51"
         style="fill-opacity:1;fill-rule:nonzero;stroke:none"
         transform="matrix(0.13333333,0,0,-0.13333333,0,1440)" />
      <path
         id="path21"
         d="m 4478.37,2888.79 v 1275.54 h 225.19 V 2888.79 Z m -43.21,1629.95 c 0,86.01 69.8,155.81 155.81,155.81 86.21,0 156.01,-69.8 156.01,-155.81 0,-86 -69.8,-155.8 -156.01,-155.8 -86.01,0 -155.81,69.8 -155.81,155.8"
         style="fill-opacity:1;fill-rule:nonzero;stroke:none"
         transform="matrix(0.13333333,0,0,-0.13333333,0,1440)" />
      <path
         id="path22"
         d="M 6262.27,4663.96 V 4459.12 H 5664.38 V 2878.4 h -225.2 v 1580.72 h -598.09 v 204.84 h 598.09 225.2 597.89"
         style="fill-opacity:1;fill-rule:nonzero;stroke:none"
         transform="matrix(0.13333333,0,0,-0.13333333,0,1440)" />
      <path
         id="path23"
         d="m 7979.89,3770.87 c 0,395.12 -344.44,716.71 -767.61,716.71 -423.18,0 -767.62,-321.59 -767.62,-716.71 0,-395.13 344.44,-716.51 767.62,-716.51 423.17,0 767.61,321.38 767.61,716.51 z m 225.19,0 c 0,-507.94 -445.4,-921.35 -992.8,-921.35 -547.41,0 -992.81,413.41 -992.81,921.35 0,508.14 445.4,921.34 992.81,921.34 547.4,0 992.8,-413.2 992.8,-921.34"
         style="fill-opacity:1;fill-rule:nonzero;stroke:none"
         transform="matrix(0.13333333,0,0,-0.13333333,0,1440)" />
    </g>
  </g>
</svg>
